<svg width="1367" height="400" viewBox="0 0 1367 400" fill="none" xmlns="http://www.w3.org/2000/svg">
<g clip-path="url(#clip0_4060_90)">
<path d="M88.8889 306.994V93.0057H133.22V306.994H88.8889ZM227.849 306.994L144.288 194.615C176.567 193.989 199.06 207.264 217.735 230.056L282.949 306.964H227.878L227.849 306.994ZM169.616 186.083L227.222 93.0057H280.085L169.616 186.083Z" fill="white"/>
<path d="M313.647 306.994V93.0057H357.978V306.994H313.647ZM372.208 306.994L459.259 258.248L444.373 306.994H372.208Z" fill="white"/>
<path d="M471.908 306.994L549.473 152.522L513.375 306.994H471.908ZM635.868 306.994L605.796 241.482L544.073 237.992L597.563 223.433L538.047 93.0057H584.586L682.406 306.994H635.868Z" fill="white"/>
<path d="M711.85 306.993V93.0045H756.181V306.993H711.85ZM823.901 156.637C823.901 128.475 804.271 100.91 770.411 93.631C776.109 93.0045 782.136 92.6763 787.505 92.6763C831.508 92.6763 868.531 113.559 868.531 144.913C868.531 173.403 837.833 192.078 808.06 197.15C818.83 185.127 823.871 170.569 823.871 156.637H823.901ZM844.486 306.993L770.411 203.802C803.973 203.802 825.482 218.361 846.067 244.941L897.677 306.993H844.486Z" fill="white"/>
<path d="M909.67 93.0057H954.001V217.407C954.001 265.527 993.887 287.036 1022.71 287.036C1051.52 287.036 1076.85 264.871 1086.67 240.826C1086.04 267.108 1059.76 311.111 1003.73 311.111C954.031 311.111 909.7 279.787 909.7 220.569V93.0057H909.67ZM1054.36 93.0057H1094.87L1086.64 226.596L1054.36 93.0057Z" fill="white"/>
<path d="M1131.89 252.222C1152.15 273.105 1176.22 293.361 1200.89 311.111C1181.27 311.111 1146.12 306.04 1126.49 297.806L1131.86 252.222H1131.89ZM1243.02 268.689C1243.02 218.362 1132.85 213.917 1132.85 150.94C1132.85 120.541 1159.13 99.6584 1183.17 92.3793C1172.73 102.821 1166.08 113.262 1166.08 126.567C1166.08 181.966 1277.21 182.294 1277.21 248.135C1277.21 276.297 1256.62 301.953 1214.86 309.858C1230.37 301.296 1243.02 285.813 1243.02 268.719V268.689ZM1261.69 141.752C1242.06 122.122 1220.23 104.7 1197.14 90.1419C1201.55 89.1872 1209.49 88.8889 1214.23 88.8889C1231 88.8889 1249.67 92.0512 1266.14 97.7492L1261.69 141.752Z" fill="white"/>
</g>
<defs>
<clipPath id="clip0_4060_90">
<rect width="1188.32" height="222.222" fill="white" transform="translate(88.8889 88.8889)"/>
</clipPath>
</defs>
</svg>
